<svg width="123" height="123" viewBox="0 0 123 123" fill="none" xmlns="http://www.w3.org/2000/svg">
<path d="M61.3147 0C71.7932 0.00585314 82.0962 2.69068 91.245 7.79943C100.394 12.9082 108.084 20.2712 113.586 29.189C119.088 38.1068 122.219 48.2832 122.681 58.7515C123.142 69.2198 120.92 79.6324 116.225 89L122.665 114.74C122.908 115.731 122.887 116.768 122.604 117.748C122.321 118.728 121.786 119.616 121.052 120.325C120.319 121.033 119.412 121.537 118.423 121.785C117.433 122.033 116.396 122.018 115.415 121.74L91.4947 115C83.3095 119.594 74.1805 122.251 64.8086 122.767C55.4366 123.283 46.071 121.645 37.4308 117.978C28.7906 114.311 21.1056 108.713 14.9657 101.613C8.82593 94.514 4.39462 86.102 2.01205 77.0232C-0.370521 67.9445 -0.640995 58.4405 1.2214 49.241C3.08378 40.0415 7.02951 31.3911 12.7556 23.9539C18.4817 16.5167 25.8359 10.4906 34.2536 6.33824C42.6713 2.18585 51.9286 0.0176115 61.3147 0V0ZM96.5047 26.25C89.8895 19.633 81.5433 15.0144 72.4232 12.9238C63.3032 10.8332 53.7786 11.3552 44.9416 14.43C36.1047 17.5047 28.3132 23.0078 22.4607 30.3081C16.6082 37.6083 12.9316 46.4102 11.8526 55.7044C10.7735 64.9986 12.3357 74.4087 16.36 82.8556C20.3843 91.3026 26.7077 98.4444 34.6051 103.462C42.5025 108.48 51.6542 111.17 61.0106 111.224C70.3671 111.279 79.5494 108.695 87.5047 103.77C88.1986 103.308 88.9834 103 89.8062 102.868C90.6291 102.735 91.4708 102.78 92.2747 103L108.875 107.77L104.375 89.77C103.979 88.3117 104.162 86.7568 104.885 85.43C106.911 81.7822 108.463 77.8908 109.505 73.85C111.643 65.4661 111.57 56.6708 109.291 48.3239C107.012 39.977 102.607 32.3643 96.5047 26.23V26.25Z" fill="black"/>
</svg>
