<svg width="74" height="68" viewBox="0 0 74 68" fill="none" xmlns="http://www.w3.org/2000/svg">
<path d="M61.25 47.52C58.1467 47.52 55.37 48.5325 53.2467 50.1188L24.1325 36.1125C24.3367 35.3362 24.5 34.56 24.5 33.75C24.5 32.94 24.3367 32.1638 24.1325 31.3875L52.92 17.5163C55.125 19.2038 58.0242 20.25 61.25 20.25C68.0283 20.25 73.5 15.7275 73.5 10.125C73.5 4.5225 68.0283 0 61.25 0C54.4717 0 49 4.5225 49 10.125C49 10.935 49.1633 11.7112 49.3675 12.4875L20.58 26.3588C18.375 24.6713 15.4758 23.625 12.25 23.625C5.47167 23.625 0 28.1475 0 33.75C0 39.3525 5.47167 43.875 12.25 43.875C15.4758 43.875 18.375 42.8287 20.58 41.1412L49.6533 55.1475C49.4492 55.8563 49.3267 56.5987 49.3267 57.375C49.3267 62.8088 54.6758 67.1962 61.25 67.1962C67.8242 67.1962 73.1733 62.8088 73.1733 57.375C73.1733 51.9412 67.8242 47.52 61.25 47.52ZM61.25 6.75C63.4958 6.75 65.3333 8.26875 65.3333 10.125C65.3333 11.9813 63.4958 13.5 61.25 13.5C59.0042 13.5 57.1667 11.9813 57.1667 10.125C57.1667 8.26875 59.0042 6.75 61.25 6.75ZM12.25 37.125C10.0042 37.125 8.16667 35.6063 8.16667 33.75C8.16667 31.8937 10.0042 30.375 12.25 30.375C14.4958 30.375 16.3333 31.8937 16.3333 33.75C16.3333 35.6063 14.4958 37.125 12.25 37.125ZM61.25 60.75C59.0042 60.75 57.1667 59.2313 57.1667 57.375C57.1667 55.5187 59.0042 54 61.25 54C63.4958 54 65.3333 55.5187 65.3333 57.375C65.3333 59.2313 63.4958 60.75 61.25 60.75Z" fill="black"/>
</svg>
